#!OML:ASF F:\VICON\USERDATA\INSTALL\rory3\rory3.ASF
:FULLY-SPECIFIED
:DEGREES
608
root 3.17842 15.7001 -12.1121 12.5577 43.6406 -0.0187268
lowerback 0.457376 -3.4087 -0.996762
upperback -9.25303 -3.58705 10.4936
thorax -9.46458 -1.04154 12.4493
lowerneck -2.63501 -9.82659 -3.81647
upperneck 18.2001 -11.5278 -9.24426
head 5.62019 -6.44223 -2.89906
rclavicle 1.33186e-014 -1.01778e-013
rhumerus 71.9194 -16.3718 -15.2544
rradius 27.263
rwrist 38.4305
rhand 21.2322 -2.97745
rfingers 7.12502
rthumb 45.6812 -26.2036
lclavicle 1.33186e-014 -1.01778e-013
lhumerus 81.8809 22.5937 33.6173
lradius 23.8646
lwrist -39.6938
lhand 1.29197 28.9775
lfingers 7.12502
lthumb 26.8273 57.0946
rfemur -70.7085 -3.83369 21.7251
rtibia 43.7639
rfoot 6.97823 -32.314
rtoes 29.6459
lfemur -19.5065 -0.617588 -36.5855
ltibia 42.7445
lfoot -31.5415 11.8273
ltoes -1.65675
609
root 3.22391 15.6902 -12.0619 12.1292 44.4386 -0.355249
lowerback 0.546702 -3.25562 -0.937122
upperback -9.37996 -3.34272 10.5342
thorax -9.72095 -0.896377 12.4739
lowerneck -1.79649 -10.1897 -3.23419
upperneck 17.6893 -12.1027 -9.59519
head 5.23469 -6.67976 -3.03779
rclavicle 3.43897e-014 9.54166e-015
rhumerus 72.5724 -16.2327 -15.507
rradius 27.594
rwrist 38.0671
rhand 21.2007 -2.69266
rfingers 7.12502
rthumb 45.6519 -25.9307
lclavicle 3.43897e-014 9.54166e-015
lhumerus 84.7307 21.1287 35.9952
lradius 23.9408
lwrist -40.5944
lhand 0.278665 27.8278
lfingers 7.12502
lthumb 25.8573 56.0899
rfemur -70.73 -4.51432 23.6426
rtibia 43.8679
rfoot 11.0435 -31.0404
rtoes 27.3378
lfemur -19.4703 -0.0642538 -36.1487
ltibia 43.4702
lfoot -30.7472 11.3412
ltoes -3.52857
610
root 3.25991 15.6781 -11.9931 11.7636 45.0665 -0.500075
lowerback 0.687622 -3.24369 -1.32177
upperback -9.35059 -3.32386 10.754
thorax -9.75314 -0.835151 12.9814
lowerneck -1.25776 -10.4625 -3.45084
upperneck 17.2764 -12.5268 -9.51762
head 5.02331 -6.873 -2.9474
rclavicle 4.4329e-014 -1.59028e-014
rhumerus 73.9823 -16.0312 -16.6654
rradius 27.9196
rwrist 38.3464
rhand 21.1277 -2.33045
rfingers 7.12502
rthumb 45.5841 -25.5962
lclavicle 4.4329e-014 -1.59028e-014
lhumerus 86.1646 20.3549 36.2509
lradius 24.5264
lwrist -40.2073
lhand -0.634055 26.7322
lfingers 7.12502
lthumb 24.9829 55.1188
rfemur -70.6094 -4.60435 24.96
rtibia 44.0686
rfoot 14.0885 -30.1662
rtoes 25.2868
lfemur -19.3655 0.62527 -35.7929
ltibia 44.1801
lfoot -30.1666 10.5013
ltoes -4.06858
611
root 3.31676 15.672 -11.9284 11.5794 45.7773 -0.409003
lowerback 0.584743 -3.3239 -1.66866
upperback -9.21725 -3.44865 10.9841
thorax -9.48591 -0.872646 13.4508
lowerneck -2.53193 -10.2343 -3.24132
upperneck 17.7953 -12.0327 -10.1466
head 5.35877 -6.69837 -3.24975
rclavicle 2.8625e-014 -3.18055e-015
rhumerus 75.6903 -15.7852 -18.1911
rradius 28.2414
rwrist 38.6279
rhand 21.1938 -2.27658
rfingers 7.12502
rthumb 45.6456 -25.5173
lclavicle 2.8625e-014 -3.18055e-015
lhumerus 86.8985 20.0386 35.2898
lradius 25.4986
lwrist -38.9574
lhand -1.32353 25.9698
lfingers 7.12502
lthumb 24.3221 54.4467
rfemur -70.6223 -5.73493 26.9579
rtibia 44.5079
rfoot 17.2795 -28.4027
rtoes 22.6129
lfemur -19.129 1.22372 -35.6788
ltibia 44.824
lfoot -29.7893 9.31227
ltoes -3.0743
612
root 3.39548 15.6669 -11.8717 11.6374 46.85 0.0399217
lowerback 0.509078 -3.44123 -1.79393
upperback -9.29644 -3.6056 10.9921
thorax -9.48505 -0.934688 13.5454
lowerneck -1.88182 -10.4538 -3.44156
upperneck 17.4698 -12.3835 -10.0848
head 5.15386 -6.85383 -3.16029
rclavicle 2.74323e-014 2.54444e-014
rhumerus 76.6532 -15.4167 -18.55
rradius 28.7279
rwrist 37.9901
rhand 21.1921 -2.41697
rfingers 7.12502
rthumb 45.6439 -25.6583
lclavicle 2.74323e-014 2.54444e-014
lhumerus 87.8332 19.1909 34.8118
lradius 26.4566
lwrist -38.524
lhand -2.24483 25.4123
lfingers 7.12502
lthumb 23.4386 54.0048
rfemur -70.7414 -7.54227 28.7402
rtibia 45.196
rfoot 20.6093 -25.7588
rtoes 18.9519
lfemur -18.6092 1.53664 -35.8189
ltibia 45.2874
lfoot -29.468 7.81975
ltoes -1.64305
613
root 3.48311 15.6631 -11.8071 12.2484 48.1119 1.36167
lowerback 0.519067 -3.62274 -2.36327
upperback -9.48803 -3.89689 10.7438
thorax -9.61465 -1.03282 13.6288
lowerneck -2.47429 -10.3871 -3.01803
upperneck 18.1501 -12.1619 -10.6356
head 5.4059 -6.78467 -3.4471
rclavicle 5.00937e-014 1.59028e-014
rhumerus 77.3271 -15.0017 -18.8415
rradius 29.279
rwrist 37.5007
rhand 21.2238 -2.49551
rfingers 7.12502
rthumb 45.6734 -25.7248
lclavicle 5.00937e-014 1.59028e-014
lhumerus 88.7641 18.1221 34.3435
lradius 27.5813
lwrist -38.3608
lhand -3.16842 25.2639
lfingers 7.12502
lthumb 22.5523 53.9667
rfemur -70.7587 -9.36803 29.4222
rtibia 46.1142
rfoot 22.3894 -23.9606
rtoes 17.6242
lfemur -17.7196 1.44369 -36.5331
ltibia 45.6068
lfoot -28.9178 6.85369
ltoes -0.215862
614
root 3.5601 15.6532 -11.7429 12.7551 49.1406 2.39578
lowerback 0.559193 -3.75763 -2.85617
upperback -9.63725 -4.1141 10.5966
thorax -9.73211 -1.09427 13.7833
lowerneck -1.81105 -10.6481 -3.58228
upperneck 18.1972 -12.5704 -10.1779
head 5.36797 -6.97223 -3.20683
rclavicle 3.06128e-014 -4.13472e-014
rhumerus 78.2422 -14.5286 -19.6337
rradius 29.75
rwrist 37.2522
rhand 21.4015 -2.53126
rfingers 7.12502
rthumb 45.8384 -25.6928
lclavicle 3.06128e-014 -4.13472e-014
lhumerus 89.5113 17.4145 33.7477
lradius 28.95
lwrist -37.8887
lhand -3.89891 24.8568
lfingers 7.12502
lthumb 21.851 53.6431
rfemur -70.721 -10.4286 29.8622
rtibia 47.0289
rfoot 23.1328 -23.3606
rtoes 18.1556
lfemur -17.1526 1.32884 -37.0826
ltibia 46.0888
lfoot -27.9457 6.82758
ltoes 0.0280938
615
root 3.6241 15.6405 -11.6818 12.6311 50.053 2.43229
lowerback 0.565006 -3.8457 -2.85427
upperback -9.76384 -4.20976 10.6652
thorax -9.85301 -1.12022 13.886
lowerneck -2.05472 -10.76 -3.41008
upperneck 18.3908 -12.6619 -10.5022
head 5.43084 -7.03709 -3.35717
rclavicle 7.7526e-014 -6.67916e-014
rhumerus 79.1731 -14.0376 -20.2032
rradius 30.072
rwrist 37.0284
rhand 21.5191 -2.54994
rfingers 7.12502
rthumb 45.9475 -25.6663
lclavicle 7.7526e-014 -6.67916e-014
lhumerus 90.1143 16.9714 33.0292
lradius 30.4181
lwrist -37.4241
lhand -4.31244 23.6705
lfingers 7.12502
lthumb 21.4539 52.5025
rfemur -70.565 -10.9144 30.8096
rtibia 47.8016
rfoot 23.9319 -22.7426
rtoes 18.529
lfemur -17.0042 1.49014 -36.9827
ltibia 46.731
lfoot -26.8172 7.6279
ltoes -2.95536
616
root 3.69078 15.6155 -11.6036 12.3843 51.0128 2.29742
lowerback 0.409345 -3.87863 -2.84772
upperback -9.91191 -4.23185 10.6979
thorax -9.92291 -1.11363 13.9234
lowerneck -2.01077 -10.8713 -3.08667
upperneck 18.7111 -12.7986 -10.6368
head 5.48391 -7.09689 -3.4614
rclavicle -5.4467e-014 -4.13472e-014
rhumerus 79.5014 -13.7192 -19.7794
rradius 30.5048
rwrist 36.4065
rhand 21.7935 -2.43628
rfingers 7.12502
rthumb 46.202 -25.4462
lclavicle -5.4467e-014 -4.13472e-014
lhumerus 90.6443 16.4188 31.8764
lradius 31.9377
lwrist -36.8797
lhand -5.12134 23.3746
lfingers 7.12502
lthumb 20.6768 52.2932
rfemur -70.2444 -11.2215 31.6731
rtibia 48.4737
rfoot 24.6791 -22.2516
rtoes 19.744
lfemur -16.9897 1.77209 -36.6532
ltibia 47.6551
lfoot -26.2471 7.30239
ltoes -2.61547
